<svg width="748" height="266" xmlns="http://www.w3.org/2000/svg" xmlns:xlink="http://www.w3.org/1999/xlink" xml:space="preserve" overflow="hidden"><g transform="translate(-23 -206)"><path d="M41.6481 2.77654 41.6481 191.581" stroke="#999999" stroke-width="1.11062" fill="none" transform="matrix(1 0 0 1.16548 50.7654 212.472)"/><path d="M81.6303 0C82.5504 -2.46606e-16 83.2962 0.74586 83.2962 1.66592L83.2962 34.4291C83.2962 35.3492 82.5504 36.095 81.6303 36.095L1.66592 36.095C0.74586 36.095 -2.46606e-16 35.3492 0 34.4291L0 1.66592C-4.93213e-16 0.74586 0.74586 -2.46606e-16 1.66592 0Z" stroke="#666666" stroke-width="0.555308" fill="#ECECFF" transform="matrix(1 0 0 1.16548 50.7654 212.472)"/><text font-family="Trebuchet MS,Trebuchet MS_MSFontService,sans-serif" font-weight="400" font-size="16" transform="matrix(0.555308 0 0 0.647202 83.8062 234)">User</text><path d="M179.642 2.77654 179.642 191.581" stroke="#999999" stroke-width="1.11062" fill="none" transform="matrix(1 0 0 1.16548 50.7654 212.472)"/><path d="M246.557 0C247.477 -2.46606e-16 248.223 0.74586 248.223 1.66592L248.223 34.4291C248.223 35.3492 247.477 36.095 246.557 36.095L112.728 36.095C111.807 36.095 111.062 35.3492 111.062 34.4291L111.062 1.66592C111.062 0.74586 111.807 -2.46606e-16 112.728 0Z" stroke="#666666" stroke-width="0.555308" fill="#ECECFF" transform="matrix(1 0 0 1.16548 50.7654 212.472)"/><text font-family="Trebuchet MS,Trebuchet MS_MSFontService,sans-serif" font-weight="400" font-size="16" transform="matrix(0.555308 0 0 0.647202 167.935 234)">Sklearn</text><text font-family="Trebuchet MS,Trebuchet MS_MSFontService,sans-serif" font-weight="400" font-size="16" transform="matrix(0.555308 0 0 0.647202 196.256 234)">.</text><text font-family="Trebuchet MS,Trebuchet MS_MSFontService,sans-serif" font-weight="400" font-size="16" transform="matrix(0.555308 0 0 0.647202 199.588 234)">feature</text><text font-family="Trebuchet MS,Trebuchet MS_MSFontService,sans-serif" font-weight="400" font-size="16" transform="matrix(0.555308 0 0 0.647202 228.464 234)">_</text><text font-family="Trebuchet MS,Trebuchet MS_MSFontService,sans-serif" font-weight="400" font-size="16" transform="matrix(0.555308 0 0 0.647202 232.906 234)">extraction</text><text font-family="Trebuchet MS,Trebuchet MS_MSFontService,sans-serif" font-weight="400" font-size="16" transform="matrix(0.555308 0 0 0.647202 273.444 234)">.</text><text font-family="Trebuchet MS,Trebuchet MS_MSFontService,sans-serif" font-weight="400" font-size="16" transform="matrix(0.555308 0 0 0.647202 276.776 234)">text</text><path d="M317.636 2.77654 317.636 191.581" stroke="#999999" stroke-width="1.11062" fill="none" transform="matrix(1 0 0 1.16548 50.7654 212.472)"/><path d="M357.618 0C358.538 -2.46606e-16 359.284 0.74586 359.284 1.66592L359.284 34.4291C359.284 35.3492 358.538 36.095 357.618 36.095L277.654 36.095C276.734 36.095 275.988 35.3492 275.988 34.4291L275.988 1.66592C275.988 0.74586 276.734 -2.46606e-16 277.654 0Z" stroke="#666666" stroke-width="0.555308" fill="#ECECFF" transform="matrix(1 0 0 1.16548 50.7654 212.472)"/><text font-family="Trebuchet MS,Trebuchet MS_MSFontService,sans-serif" font-weight="400" font-size="16" transform="matrix(0.555308 0 0 0.647202 338.137 234)">TfidfVectorizer</text><path d="M428.698 2.77654 428.698 191.581" stroke="#999999" stroke-width="1.11062" fill="none" transform="matrix(1 0 0 1.16548 50.7654 212.472)"/><path d="M468.68 0C469.6 -2.46606e-16 470.346 0.74586 470.346 1.66592L470.346 34.4291C470.346 35.3492 469.6 36.095 468.68 36.095L388.716 36.095C387.796 36.095 387.05 35.3492 387.05 34.4291L387.05 1.66592C387.05 0.74586 387.796 -2.46606e-16 388.716 0Z" stroke="#666666" stroke-width="0.555308" fill="#ECECFF" transform="matrix(1 0 0 1.16548 50.7654 212.472)"/><text font-family="Trebuchet MS,Trebuchet MS_MSFontService,sans-serif" font-weight="400" font-size="16" transform="matrix(0.555308 0 0 0.647202 462.804 234)">Products</text><path d="M539.759 2.77654 539.759 191.581" stroke="#999999" stroke-width="1.11062" fill="none" transform="matrix(1 0 0 1.16548 50.7654 212.472)"/><path d="M579.742 0C580.662 -2.46606e-16 581.408 0.74586 581.408 1.66592L581.408 34.4291C581.408 35.3492 580.662 36.095 579.742 36.095L499.777 36.095C498.857 36.095 498.111 35.3492 498.111 34.4291L498.111 1.66592C498.111 0.74586 498.857 -2.46606e-16 499.777 0Z" stroke="#666666" stroke-width="0.555308" fill="#ECECFF" transform="matrix(1 0 0 1.16548 50.7654 212.472)"/><text font-family="Trebuchet MS,Trebuchet MS_MSFontService,sans-serif" font-weight="400" font-size="16" transform="matrix(0.555308 0 0 0.647202 569.978 234)">Vectorizer</text><path d="M650.821 2.77654 650.821 191.581" stroke="#999999" stroke-width="1.11062" fill="none" transform="matrix(1 0 0 1.16548 50.7654 212.472)"/><path d="M690.803 0C691.723 -2.46606e-16 692.469 0.74586 692.469 1.66592L692.469 34.4291C692.469 35.3492 691.723 36.095 690.803 36.095L610.839 36.095C609.919 36.095 609.173 35.3492 609.173 34.4291L609.173 1.66592C609.173 0.74586 609.919 -2.46606e-16 610.839 0Z" stroke="#666666" stroke-width="0.555308" fill="#ECECFF" transform="matrix(1 0 0 1.16548 50.7654 212.472)"/><text font-family="Trebuchet MS,Trebuchet MS_MSFontService,sans-serif" font-weight="400" font-size="16" transform="matrix(0.555308 0 0 0.647202 677.431 234)">Tfidf</text><text font-family="Trebuchet MS,Trebuchet MS_MSFontService,sans-serif" font-weight="400" font-size="16" transform="matrix(0.555308 0 0 0.647202 696.866 234)">_</text><text font-family="Trebuchet MS,Trebuchet MS_MSFontService,sans-serif" font-weight="400" font-size="16" transform="matrix(0.555308 0 0 0.647202 701.309 234)">Matrix</text><text fill="#333333" font-family="Trebuchet MS,Trebuchet MS_MSFontService,sans-serif" font-weight="400" font-size="16" transform="matrix(0.555308 0 0 0.647202 116.569 275)">Import TfidfVectorizer</text><path d="M41.6481 62.7498 179.642 62.7498" stroke="#333333" stroke-width="0.832962" fill="none" transform="matrix(1 0 0 1.16548 50.7654 212.472)"/><g><path d="M0 0 8.32962 4.16481 0 8.32962Z" stroke="#333333" stroke-width="0.832962" fill="#333333" transform="matrix(1 0 0 1.16548 222.911 280.752)"/></g><text fill="#333333" font-family="Trebuchet MS,Trebuchet MS_MSFontService,sans-serif" font-weight="400" font-size="16" transform="matrix(0.555308 0 0 0.647202 178.486 306)">Instantiate TfidfVectorizer</text><path d="M41.6481 89.4046 317.636 89.4046" stroke="#333333" stroke-width="0.832962" fill="none" transform="matrix(1 0 0 1.16548 50.7654 212.472)"/><g><path d="M0 0 8.32962 4.16481 0 8.32962Z" stroke="#333333" stroke-width="0.832962" fill="#333333" transform="matrix(1 0 0 1.16548 360.905 311.818)"/></g><text fill="#333333" font-family="Trebuchet MS,Trebuchet MS_MSFontService,sans-serif" font-weight="400" font-size="16" transform="matrix(0.555308 0 0 0.647202 237.904 337)">Extract highlights values</text><path d="M41.6481 116.059 428.698 116.059" stroke="#333333" stroke-width="0.832962" fill="none" transform="matrix(1 0 0 1.16548 50.7654 212.472)"/><g><path d="M0 0 8.32962 4.16481 0 8.32962Z" stroke="#333333" stroke-width="0.832962" fill="#333333" transform="matrix(1 0 0 1.16548 471.967 342.883)"/></g><text fill="#333333" font-family="Trebuchet MS,Trebuchet MS_MSFontService,sans-serif" font-weight="400" font-size="16" transform="matrix(0.555308 0 0 0.647202 273.722 368)">Fit and transform highlights values</text><path d="M41.6481 142.714 539.759 142.714" stroke="#333333" stroke-width="0.832962" fill="none" transform="matrix(1 0 0 1.16548 50.7654 212.472)"/><g><path d="M0 0 8.32962 4.16481 0 8.32962Z" stroke="#333333" stroke-width="0.832962" fill="#333333" transform="matrix(1 0 0 1.16548 583.028 373.949)"/></g><text fill="#333333" font-family="Trebuchet MS,Trebuchet MS_MSFontService,sans-serif" font-weight="400" font-size="16" transform="matrix(0.555308 0 0 0.647202 366.458 399)">Store the result</text><path d="M41.6481 169.369 650.821 169.369" stroke="#333333" stroke-width="0.832962" fill="none" transform="matrix(1 0 0 1.16548 50.7654 212.472)"/><g><path d="M0 0 8.32962 4.16481 0 8.32962Z" stroke="#333333" stroke-width="0.832962" fill="#333333" transform="matrix(1 0 0 1.16548 694.09 405.015)"/></g><path d="M81.6303 180.475C82.5504 180.475 83.2962 181.221 83.2962 182.141L83.2962 214.904C83.2962 215.824 82.5504 216.57 81.6303 216.57L1.66592 216.57C0.74586 216.57 -2.46606e-16 215.824 0 214.904L0 182.141C-4.93213e-16 181.221 0.74586 180.475 1.66592 180.475Z" stroke="#666666" stroke-width="0.555308" fill="#ECECFF" transform="matrix(1 0 0 1.16548 50.7654 212.472)"/><text font-family="Trebuchet MS,Trebuchet MS_MSFontService,sans-serif" font-weight="400" font-size="16" transform="matrix(0.555308 0 0 0.647202 83.8062 444)">User</text><path d="M246.557 180.475C247.477 180.475 248.223 181.221 248.223 182.141L248.223 214.904C248.223 215.824 247.477 216.57 246.557 216.57L112.728 216.57C111.807 216.57 111.062 215.824 111.062 214.904L111.062 182.141C111.062 181.221 111.807 180.475 112.728 180.475Z" stroke="#666666" stroke-width="0.555308" fill="#ECECFF" transform="matrix(1 0 0 1.16548 50.7654 212.472)"/><text font-family="Trebuchet MS,Trebuchet MS_MSFontService,sans-serif" font-weight="400" font-size="16" transform="matrix(0.555308 0 0 0.647202 167.935 444)">Sklearn</text><text font-family="Trebuchet MS,Trebuchet MS_MSFontService,sans-serif" font-weight="400" font-size="16" transform="matrix(0.555308 0 0 0.647202 196.256 444)">.</text><text font-family="Trebuchet MS,Trebuchet MS_MSFontService,sans-serif" font-weight="400" font-size="16" transform="matrix(0.555308 0 0 0.647202 199.588 444)">feature</text><text font-family="Trebuchet MS,Trebuchet MS_MSFontService,sans-serif" font-weight="400" font-size="16" transform="matrix(0.555308 0 0 0.647202 228.464 444)">_</text><text font-family="Trebuchet MS,Trebuchet MS_MSFontService,sans-serif" font-weight="400" font-size="16" transform="matrix(0.555308 0 0 0.647202 232.906 444)">extraction</text><text font-family="Trebuchet MS,Trebuchet MS_MSFontService,sans-serif" font-weight="400" font-size="16" transform="matrix(0.555308 0 0 0.647202 273.444 444)">.</text><text font-family="Trebuchet MS,Trebuchet MS_MSFontService,sans-serif" font-weight="400" font-size="16" transform="matrix(0.555308 0 0 0.647202 276.776 444)">text</text><path d="M357.618 180.475C358.538 180.475 359.284 181.221 359.284 182.141L359.284 214.904C359.284 215.824 358.538 216.57 357.618 216.57L277.654 216.57C276.734 216.57 275.988 215.824 275.988 214.904L275.988 182.141C275.988 181.221 276.734 180.475 277.654 180.475Z" stroke="#666666" stroke-width="0.555308" fill="#ECECFF" transform="matrix(1 0 0 1.16548 50.7654 212.472)"/><text font-family="Trebuchet MS,Trebuchet MS_MSFontService,sans-serif" font-weight="400" font-size="16" transform="matrix(0.555308 0 0 0.647202 338.137 444)">TfidfVectorizer</text><path d="M468.68 180.475C469.6 180.475 470.346 181.221 470.346 182.141L470.346 214.904C470.346 215.824 469.6 216.57 468.68 216.57L388.716 216.57C387.796 216.57 387.05 215.824 387.05 214.904L387.05 182.141C387.05 181.221 387.796 180.475 388.716 180.475Z" stroke="#666666" stroke-width="0.555308" fill="#ECECFF" transform="matrix(1 0 0 1.16548 50.7654 212.472)"/><text font-family="Trebuchet MS,Trebuchet MS_MSFontService,sans-serif" font-weight="400" font-size="16" transform="matrix(0.555308 0 0 0.647202 462.804 444)">Products</text><path d="M579.742 180.475C580.662 180.475 581.408 181.221 581.408 182.141L581.408 214.904C581.408 215.824 580.662 216.57 579.742 216.57L499.777 216.57C498.857 216.57 498.111 215.824 498.111 214.904L498.111 182.141C498.111 181.221 498.857 180.475 499.777 180.475Z" stroke="#666666" stroke-width="0.555308" fill="#ECECFF" transform="matrix(1 0 0 1.16548 50.7654 212.472)"/><text font-family="Trebuchet MS,Trebuchet MS_MSFontService,sans-serif" font-weight="400" font-size="16" transform="matrix(0.555308 0 0 0.647202 569.978 444)">Vectorizer</text><path d="M690.803 180.475C691.723 180.475 692.469 181.221 692.469 182.141L692.469 214.904C692.469 215.824 691.723 216.57 690.803 216.57L610.839 216.57C609.919 216.57 609.173 215.824 609.173 214.904L609.173 182.141C609.173 181.221 609.919 180.475 610.839 180.475Z" stroke="#666666" stroke-width="0.555308" fill="#ECECFF" transform="matrix(1 0 0 1.16548 50.7654 212.472)"/><text font-family="Trebuchet MS,Trebuchet MS_MSFontService,sans-serif" font-weight="400" font-size="16" transform="matrix(0.555308 0 0 0.647202 677.431 444)">Tfidf</text><text font-family="Trebuchet MS,Trebuchet MS_MSFontService,sans-serif" font-weight="400" font-size="16" transform="matrix(0.555308 0 0 0.647202 696.866 444)">_</text><text font-family="Trebuchet MS,Trebuchet MS_MSFontService,sans-serif" font-weight="400" font-size="16" transform="matrix(0.555308 0 0 0.647202 701.309 444)">Matrix</text></g></svg>